<?xml version="1.0" encoding="UTF-8" standalone="no"?>
<!-- Created with Inkscape (http://www.inkscape.org/) -->

<svg
   width="128"
   height="128"
   viewBox="0 0 48 48"
   version="1.1"
   id="svg5"
   inkscape:version="1.2.1 (9c6d41e410, 2022-07-14)"
   sodipodi:docname="sickle.svg"
   inkscape:export-filename="sickle16.png"
   inkscape:export-xdpi="32"
   inkscape:export-ydpi="32"
   xml:space="preserve"
   xmlns:inkscape="http://www.inkscape.org/namespaces/inkscape"
   xmlns:sodipodi="http://sodipodi.sourceforge.net/DTD/sodipodi-0.dtd"
   xmlns="http://www.w3.org/2000/svg"
   xmlns:svg="http://www.w3.org/2000/svg"
   xmlns:rdf="http://www.w3.org/1999/02/22-rdf-syntax-ns#"
   xmlns:cc="http://creativecommons.org/ns#"
   xmlns:dc="http://purl.org/dc/elements/1.1/"><title
     id="title1414">Sickle Icon</title><sodipodi:namedview
     id="namedview7"
     pagecolor="#505050"
     bordercolor="#ffffff"
     borderopacity="1"
     inkscape:showpageshadow="0"
     inkscape:pageopacity="0"
     inkscape:pagecheckerboard="1"
     inkscape:deskcolor="#505050"
     inkscape:document-units="px"
     showgrid="false"
     inkscape:zoom="14.142136"
     inkscape:cx="23.122392"
     inkscape:cy="23.900209"
     inkscape:window-width="1358"
     inkscape:window-height="1494"
     inkscape:window-x="-10"
     inkscape:window-y="60"
     inkscape:window-maximized="0"
     inkscape:current-layer="layer1"
     shape-rendering="crispEdges" /><defs
     id="defs2" /><g
     inkscape:label="Layer 1"
     inkscape:groupmode="layer"
     id="layer1"><ellipse
       style="display:inline;fill:#bf0000;stroke:none;stroke-width:1;stroke-dasharray:none;fill-opacity:1"
       id="path1524"
       cx="-24"
       cy="23.994871"
       rx="23.505024"
       ry="23.499895"
       transform="scale(-1,1)"
       inkscape:label="OrbFill" /><g
       id="g2485"
       stroke-miterlimit="0"
       transform="matrix(0.08904165,-0.05140822,0.05038661,0.08727217,-35.411525,-2.4086189)"
       style="display:inline"><path
         id="path2396"
         d="m -812.48118,222.49892 c 31.29786,-68.15136 89.85998,-110.20767 162.9685,-126.920202 73.10851,-16.712532 138.88141,-7.36933 196.68188,40.414232"
         fill-opacity="0"
         transform="matrix(-0.44349,-0.19233,0.21042,-0.3707,97.221,255.04)"
         stroke="#ffffff"
         stroke-width="15.943"
         style="display:inline;stroke-width:21.70476219;stroke-dasharray:none"
         sodipodi:nodetypes="csc" /><path
         id="path3170"
         d="m -807.15798,215.01673 c 31.29786,-68.15136 84.53678,-102.72548 157.6453,-119.438012 73.10851,-16.712532 132.94213,-12.815128 190.7426,34.968432"
         fill-opacity="0"
         transform="matrix(-1.0189,-0.45628,0.49607,-0.85034,-380.71,484.23)"
         stroke="#ffffff"
         stroke-width="6.9033"
         sodipodi:nodetypes="csc"
         style="stroke-width:9.39797;stroke-linecap:butt;stroke-linejoin:bevel;stroke-miterlimit:0;stroke-dasharray:none;paint-order:normal" /><path
         id="path3172"
         d="m -808.94189,217.14433 c 31.29786,-68.15135 86.32069,-104.85308 159.42921,-121.565612 73.10851,-16.712532 155.80931,6.194092 213.60977,53.977662"
         fill-opacity="0"
         transform="matrix(0.64115,-0.98764,0.80549,0.6552,575.85,-235.75)"
         stroke="#ffffff"
         stroke-width="6.5452"
         style="display:inline;stroke-width:8.91042;stroke-dasharray:none"
         sodipodi:nodetypes="csc" /><path
         id="path3178"
         stroke="#ffffff"
         stroke-width="7.9828"
         fill="none"
         d="M 422.2,299.12 315.89249,749.00362"
         sodipodi:nodetypes="cc"
         style="stroke-width:9.82417627;stroke-dasharray:none" /><path
         id="path2393"
         d="M -793.60096,192.85105 C -730.13721,101.41001 -612.84299,65.636106 -508.97,105.63"
         fill-opacity="0"
         transform="matrix(-1.3253,-0.66861,0.7111,-1.0989,-589.04,215.76)"
         stroke="#ffffff"
         stroke-linecap="round"
         stroke-width="5.1918"
         style="display:inline;stroke-width:7.06826354;stroke-dasharray:none"
         sodipodi:nodetypes="cc" /><path
         id="path2395"
         d="m -818.05856,234.90403 c 31.29786,-68.15135 95.43736,-122.61278 168.54588,-139.325312 73.10851,-16.712532 141.95897,-4.563869 199.75944,43.219692"
         fill-opacity="0"
         transform="matrix(-0.31108,1.1351,-0.96591,-0.37971,404.8,1314.6)"
         stroke="#ffffff"
         stroke-width="6.5481"
         style="display:inline;stroke-width:8.91442;stroke-dasharray:none"
         sodipodi:nodetypes="csc" /></g><path
       id="path8428"
       inkscape:connector-curvature="0"
       sodipodi:nodetypes="ccsscssccssssscsssccccccc"
       style="display:inline;fill:#ffd500;fill-opacity:1;stroke:#000000;stroke-width:1;stroke-dasharray:none;stroke-opacity:1;stroke-linecap:butt;stroke-linejoin:round"
       d="M 10.559127,40.383833 C 9.3172396,39.559575 7.7559198,38.566155 7.7559198,38.566155 c 0,0 0.1225944,-0.204787 0.7774878,-0.974348 0.4513492,-0.530361 2.7357534,-3.219854 5.0764464,-5.976555 2.340694,-2.756814 4.426377,-5.012325 4.426377,-5.012325 0,0 0.707349,0.312576 1.363418,0.69462 1.800838,1.048703 3.281385,1.518214 5.160306,1.636407 2.212646,0.139206 4.599947,-0.233994 6.344629,-1.201779 2.54087,-1.478964 4.407279,-3.133581 5.548278,-6.041457 0.537417,-1.41257 0.739474,-2.734644 0.76554,-4.219246 0.02513,-1.429321 -0.249284,-2.831829 -0.648524,-3.792579 C 35.264253,10.53682 32.333798,7.8958255 29.041382,6.8941125 27.926172,6.5547793 27.103695,6.4553433 25.44068,6.4587763 c -2.296277,0.00474 -3.469795,0.409066 -5.293955,1.134556 -0.325394,0.1294157 -1.008431,0.4748187 -1.008431,0.4748187 0,0 1.540055,-1.3542474 3.018145,-2.0966317 2.105234,-1.0573822 3.78637,-1.4482825 6.157704,-1.4318084 4.008793,0.027795 7.214665,1.3256666 10.094013,4.0865137 4.63863,4.4477274 5.566972,11.2665074 2.304739,16.9279544 -3.618392,5.979153 -14.165531,7.74034 -19.259516,5.517355 l -1.737555,-0.850351 -2.710373,4.890539 c -3.768821,6.80026 -3.778482,6.861623 -3.778482,6.861623 0,0 -1.426756,-0.765272 -2.668585,-1.589472 z"
       inkscape:label="Sickle" /><ellipse
       style="display:inline;fill:none;stroke:#000000;stroke-width:1;stroke-dasharray:none"
       id="ellipse2896"
       cx="-24"
       cy="23.994871"
       rx="23.505024"
       ry="23.499895"
       transform="scale(-1,1)"
       inkscape:label="OrbOutline" /></g><metadata
     id="metadata1412"><rdf:RDF><cc:Work
         rdf:about=""><dc:title>Sickle Icon</dc:title><cc:license
           rdf:resource="http://creativecommons.org/publicdomain/zero/1.0/" /></cc:Work><cc:License
         rdf:about="http://creativecommons.org/publicdomain/zero/1.0/"><cc:permits
           rdf:resource="http://creativecommons.org/ns#Reproduction" /><cc:permits
           rdf:resource="http://creativecommons.org/ns#Distribution" /><cc:permits
           rdf:resource="http://creativecommons.org/ns#DerivativeWorks" /></cc:License></rdf:RDF></metadata></svg>
